# xmcd CD database file
#
# Track frame offsets:
#	150
#	12589
#	25728
#	41195
#	58668
#	71794
#	90050
#	101867
#	116528
#	130778
#	146593
#	160127
#	178534
#	190193
#	204534
#
# Disc length: 2916 seconds
#
# Revision: 0
# Processed by: cddbd v1.4PL0 Copyright (c) Steve Scherf et al.
# Submitted via: CDex 1.50beta9
#
DISCID=cf0b620f
DTITLE=Michael English - The Nearest To Perfect
DYEAR=1900
DGENRE=Country
TTITLE0=Heaven Is My Woman's Love
TTITLE1=Blue Velvet
TTITLE2=Welcome Home
TTITLE3=The Nearest To Perfect
TTITLE4=All I Have To Offer You Is Me
TTITLE5=Mary From Dungloe
TTITLE6=I'm Living In Two Worlds
TTITLE7=Just Lovin' You
TTITLE8=Come On Home
TTITLE9=Blue Eyes Crying In The Rain
TTITLE10=My First And My Last
TTITLE11=A Whisper Away
TTITLE12=Wrong Road Again
TTITLE13=Cavan Girl
TTITLE14=Dreaming My Dreams
EXTD=
EXTT0=
EXTT1=
EXTT2=
EXTT3=
EXTT4=
EXTT5=
EXTT6=
EXTT7=
EXTT8=
EXTT9=
EXTT10=
EXTT11=
EXTT12=
EXTT13=
EXTT14=
PLAYORDER=
